<svg version="1.1" id="Capa_1" xmlns="http://www.w3.org/2000/svg" xmlns:xlink="http://www.w3.org/1999/xlink" x="0px" y="0px" viewBox="0 0 482.5 164.5" style="enable-background:new 0 0 482.5 164.5;" xml:space="preserve">
                    <style type="text/css">
                      .st0{fill:#F5CD21;}
                      .st1{fill:#008EBB;}
                      .st2{fill:#8496A9;}
                    </style>
                    <g>
                      <path class="st0" d="M248.4,13.2c36.5,1.6,90.6,5.9,118.1,11.1c-39.2-17-86.1-25.9-136.1-24C192.3,1.8,156.5,11,125,23.9
                        C163,14.9,204.7,11.2,248.4,13.2"></path>
                      <path class="st1" d="M429.3,68.8L429.3,68.8c0,0-0.1,0-0.1-0.1c-44.7-25.4-99.8-43.4-160.4-49.9s-118.1-0.7-167,14.7
                        c38.1-3.8,77.8-4.7,118.5-2.6c-61.6,2.6-118.8,16.3-167.1,38.2c59.3-12.9,122.4-19.9,188.1-19.9c65.5,0,128.6,6.9,187.8,19.7
                        C429.2,68.8,429.3,68.8,429.3,68.8L429.3,68.8"></path>
                      <path class="st2" d="M355.8,127.4c2.3-1.5,8-6,8-14.1c0-12.3-8.2-20.6-23.4-20.6h-30.5v71.2h32c13.1,0,22.9-7.4,22.9-21
                        C364.9,132.9,358.8,129.2,355.8,127.4 M328,108.4h11.3c5,0,6.5,3,6.5,5.8s-1.5,5.8-6.5,5.8H328V108.4z M340.2,148.2H328v-12.5h12.2
                        c5,0,6.6,3.2,6.6,6.2S345.2,148.2,340.2,148.2 M477.1,126.5c-3.1-3-7.9-5-14.5-5.9l-8.9-1.2c-2.6-0.3-4.1-1.2-5.1-2.1
                        c-1.1-1.1-1.4-2.4-1.4-3.3c0-3.1,2.6-6.6,8.9-6.6c3.2,0,9.3-0.3,13.9,4.2l11.4-11c-6.3-6.1-14.3-8.5-24.8-8.5
                        c-16.7,0-26.9,9.5-26.9,22.5c0,6.1,1.7,10.9,5.1,14.3c3.3,3.3,8.3,5.4,14.8,6.3l8.9,1.2c2.4,0.3,3.9,1,4.8,1.9
                        c1,1.1,1.4,2.5,1.4,4.2c0,4.1-3.4,6.4-10.5,6.4c-5.9,0-12.6-1.3-16.4-5l-11.6,11.2c7.4,7.4,16.6,9.4,27.9,9.4
                        c15.5,0,28.4-7.9,28.4-22.4C482.5,135.5,481,130.2,477.1,126.5 M99.8,138.5c0,6.6-3.9,10.4-9.9,10.4s-9.7-3.8-9.7-10.4V92.7H62.1
                        v46.2c0,15.6,12.5,25.6,27.8,25.6s28-10,28-25.6V92.7H99.8L99.8,138.5L99.8,138.5z M45.8,127.4c2.3-1.5,8.1-6,8.1-14.1
                        c0-12.3-8.2-20.6-23.4-20.6H0v71.2h32c13.1,0,22.9-7.4,22.9-21C54.9,132.9,48.9,129.2,45.8,127.4 M18.1,108.4h11.3
                        c5,0,6.5,3,6.5,5.8s-1.5,5.8-6.5,5.8H18.1V108.4z M30.3,148.2H18.1v-12.5h12.2c5,0,6.6,3.2,6.6,6.2
                        C36.9,144.9,35.2,148.2,30.3,148.2 M251.3,163.9h50v-15.6h-31.9v-12.5h27.3v-15.6h-27.3v-11.9h31.9V92.7h-50V163.9z M407.7,138.5
                        c0,6.6-3.9,10.4-9.9,10.4s-9.7-3.8-9.7-10.4V92.7H370v46.2c0,15.6,12.5,25.6,27.8,25.6s28-10,28-25.6V92.7h-18.1V138.5z
                          M225.8,138.5c0,6.6-3.9,10.4-9.9,10.4s-9.7-3.8-9.7-10.4V92.7h-18.1v46.2c0,15.6,12.5,25.6,27.8,25.6s28-10,28-25.6V92.7h-18.1
                        L225.8,138.5L225.8,138.5z M181,128.3c0-10.7,0.3-20.7-7.4-28.2c-5.4-5.2-11.6-8-20.6-8s-15.2,2.8-20.6,8
                        c-7.7,7.5-7.4,17.5-7.4,28.2s-0.3,20.7,7.4,28.2c5.4,5.2,11.6,8,20.6,8h32.2v-15.6h-6.6C181.1,142.7,181,135.7,181,128.3
                          M160.2,145.7c-1.3,1.7-3.9,3.2-7.2,3.2c-3.3,0-5.9-1.5-7.2-3.2c-1.7-2.1-2.7-4.4-2.7-17.4s1-15.4,2.7-17.5
                        c1.3-1.7,3.9-3.1,7.2-3.1c3.3,0,5.9,1.4,7.2,3.1c1.6,2.1,2.7,4.5,2.7,17.5C162.9,141.3,161.8,143.6,160.2,145.7"></path>
                    </g>
</svg>