<svg xmlns="http://www.w3.org/2000/svg" viewBox="0 0 520 250"><defs><style>.cls-1{fill:#008eaa;}</style></defs><g id="Notes"><path class="cls-1" d="M174,200.07a2.2,2.2,0,0,1,2.44-2.21H177a2.08,2.08,0,0,1,1.63.58,2.18,2.18,0,0,1,.45,1.63l-1.5,21.64a2.56,2.56,0,0,1-.7,1.69,2.37,2.37,0,0,1-1.72.58h-1.42a2,2,0,0,1-1.61-.58,2.16,2.16,0,0,1-.41-1.69Zm.12-10.72q.25-2.91,3.79-2.91a3.52,3.52,0,0,1,2.5.74,2.48,2.48,0,0,1,.63,2.09q-.24,2.88-3.71,2.88T174.12,189.35Z"></path><path class="cls-1" d="M195.71,219.09a2.81,2.81,0,0,1-1.57-.38,2.57,2.57,0,0,1-.93-1.23c-.46-1.06-.93-2.33-1.44-3.83s-1-3.13-1.55-4.91-1.06-3.67-1.59-5.67-1-4-1.53-6.11-.94-4.16-1.37-6.24-.79-4.09-1.12-6.05a2,2,0,0,1,.41-1.73,2.27,2.27,0,0,1,1.71-.78l1.6-.08a2.49,2.49,0,0,1,1.59.45,2.3,2.3,0,0,1,.75,1.46c.18,1.14.41,2.47.69,4s.61,3.11,1,4.81.78,3.46,1.21,5.28.88,3.64,1.36,5.43,1,3.54,1.48,5.23,1,3.26,1.58,4.7h1q.66-1.16,1.56-2.94c.61-1.19,1.26-2.54,1.94-4s1.41-3.14,2.17-4.9,1.53-3.6,2.31-5.52,1.54-3.9,2.29-5.92,1.47-4.06,2.16-6.1a2.75,2.75,0,0,1,1-1.46,3,3,0,0,1,1.68-.45l1.55.08a2,2,0,0,1,1.59.73,1.92,1.92,0,0,1,.12,1.78q-1,2.73-2.07,5.68t-2.35,6q-1.23,3-2.5,6c-.85,2-1.7,3.89-2.55,5.71s-1.68,3.54-2.5,5.15-1.6,3-2.34,4.29a3.5,3.5,0,0,1-1.18,1.23,3.06,3.06,0,0,1-1.6.38Z"></path><path class="cls-1" d="M219.22,194.58a2.2,2.2,0,0,1,2.45-2.25h1.1c1.5,0,2.18.75,2,2.25l-1.19,13.63q-.3,3.47,1,5.1c.86,1.09,2.29,1.64,4.3,1.64a10.34,10.34,0,0,0,6.44-2.12l1.6-18.25a2.19,2.19,0,0,1,2.44-2.25h1.11c1.5,0,2.18.75,2.05,2.25l-2,22.27a2.19,2.19,0,0,1-2.44,2.24h-.61a3.09,3.09,0,0,1-1.56-.31,1.39,1.39,0,0,1-.65-1l-.23-1.3a13.05,13.05,0,0,1-3.79,2.26,12,12,0,0,1-8.5.07,7.25,7.25,0,0,1-3-2.14,8.4,8.4,0,0,1-1.62-3.4,14.19,14.19,0,0,1-.25-4.5Z"></path><path class="cls-1" d="M252.67,208.21q.35,6.84,7.88,6.84a11.6,11.6,0,0,0,2.3-.24,12.35,12.35,0,0,0,2.46-.76,3,3,0,0,1,1.61-.28,1.21,1.21,0,0,1,1.06.86l.25.74a1.57,1.57,0,0,1-.2,1.53,3.78,3.78,0,0,1-1.46,1.16,9.51,9.51,0,0,1-1.72.65q-1,.27-2,.48c-.68.13-1.33.22-2,.29s-1.23.09-1.74.09q-6.39,0-9.4-3.58t-2.39-10.58a18.22,18.22,0,0,1,1.41-5.8,13.54,13.54,0,0,1,2.91-4.29,12.29,12.29,0,0,1,4.21-2.67,14.71,14.71,0,0,1,5.32-.92,12.52,12.52,0,0,1,4.19.67,9.84,9.84,0,0,1,3.25,1.86,7.78,7.78,0,0,1,2,2.8,7.16,7.16,0,0,1,.53,3.49,7.75,7.75,0,0,1-2.8,5.72q-2.46,1.93-7,1.94Zm2.94-9.75a10.91,10.91,0,0,0-2.6,5.21h7.87a14.31,14.31,0,0,0,2.13-.14,4.26,4.26,0,0,0,1.46-.44,2.25,2.25,0,0,0,.88-.85,3.26,3.26,0,0,0,.37-1.32,3.82,3.82,0,0,0-.3-2,3.87,3.87,0,0,0-1.13-1.43,4.74,4.74,0,0,0-1.69-.86,7.16,7.16,0,0,0-2-.28A6.55,6.55,0,0,0,255.61,198.46Z"></path><path class="cls-1" d="M277.22,219.09a1.81,1.81,0,0,1-2.05-2.24l2.95-33.66a2.19,2.19,0,0,1,2.44-2.24h1.11a1.81,1.81,0,0,1,2.05,2.24l-3,33.66a2.19,2.19,0,0,1-2.44,2.24Z"></path><path class="cls-1" d="M292.11,195.29a13.9,13.9,0,0,1,4.53-2.65,16.43,16.43,0,0,1,5.59-.91,22,22,0,0,1,4.1.38,23.23,23.23,0,0,1,4.45,1.33,2.3,2.3,0,0,1,1.47,2.59l-1.82,20.82a2.2,2.2,0,0,1-2.46,2.24h-.63c-1.32,0-2-.44-2.23-1.32l-.23-1.29c-.77.54-1.48,1-2.15,1.4a13.38,13.38,0,0,1-2,1,10.19,10.19,0,0,1-2,.56,13.17,13.17,0,0,1-2.14.17,9.56,9.56,0,0,1-4.23-.9,8,8,0,0,1-3.07-2.64,11.64,11.64,0,0,1-1.75-4.31,20.7,20.7,0,0,1-.24-5.89,18.27,18.27,0,0,1,1.54-6.09A14,14,0,0,1,292.11,195.29Zm2,17.44a4.72,4.72,0,0,0,1.92,1.66,6.1,6.1,0,0,0,2.67.56,9.33,9.33,0,0,0,1.81-.18,11.39,11.39,0,0,0,1.76-.47,10.46,10.46,0,0,0,1.59-.73,9.12,9.12,0,0,0,1.35-.92l1.34-15.32a10.93,10.93,0,0,0-1-.37,9.07,9.07,0,0,0-1.22-.31c-.42-.08-.86-.14-1.32-.2a11.88,11.88,0,0,0-1.31-.07,8.71,8.71,0,0,0-3.41.64,7.77,7.77,0,0,0-2.67,1.85,9.31,9.31,0,0,0-1.84,2.93,13.55,13.55,0,0,0-.9,3.87Q292.43,210.32,294.09,212.73Z"></path><path class="cls-1" d="M333.8,198a3.77,3.77,0,0,1,.48-1.58,3.41,3.41,0,0,1,1.24-1.12,31,31,0,0,1,6.33-2.65,22.11,22.11,0,0,1,6.13-.91q4.27,0,6.15,2.77a28.06,28.06,0,0,1,5-2,16.79,16.79,0,0,1,4.83-.74c2.92,0,5.05.82,6.37,2.48s1.85,4.1,1.57,7.34l-1.34,15.3a2.19,2.19,0,0,1-2.44,2.24H367a1.81,1.81,0,0,1-2.05-2.24l1.3-14.82a14,14,0,0,0,0-2.5,4.4,4.4,0,0,0-.52-1.77,2.6,2.6,0,0,0-1.19-1,4.75,4.75,0,0,0-2-.36,7.42,7.42,0,0,0-1.71.22,16.05,16.05,0,0,0-1.91.59,16.63,16.63,0,0,0-1.88.81,11.62,11.62,0,0,0-1.57.94,17.94,17.94,0,0,1,0,2.93l-1.32,15a2.19,2.19,0,0,1-2.44,2.24h-1.11a1.81,1.81,0,0,1-2.05-2.24l1.28-14.56a14.7,14.7,0,0,0,0-2.56,4.87,4.87,0,0,0-.5-1.86,2.62,2.62,0,0,0-1.14-1.14,4.21,4.21,0,0,0-1.91-.38,11,11,0,0,0-3.28.59,16.59,16.59,0,0,0-3.63,1.71l-1.59,18.2a2.19,2.19,0,0,1-2.44,2.24H334.2a1.81,1.81,0,0,1-2.05-2.24Z"></path><path class="cls-1" d="M381.87,195.29a13.9,13.9,0,0,1,4.53-2.65,16.49,16.49,0,0,1,5.6-.91,22.11,22.11,0,0,1,4.1.38,23.65,23.65,0,0,1,4.45,1.33A2.29,2.29,0,0,1,402,196l-1.82,20.82a2.19,2.19,0,0,1-2.45,2.24h-.64q-2,0-2.22-1.32l-.23-1.29c-.77.54-1.49,1-2.16,1.4a13.78,13.78,0,0,1-2,1,10.39,10.39,0,0,1-2,.56,13.26,13.26,0,0,1-2.14.17,9.53,9.53,0,0,1-4.23-.9,8,8,0,0,1-3.07-2.64,11.32,11.32,0,0,1-1.75-4.31,20.7,20.7,0,0,1-.24-5.89,17.8,17.8,0,0,1,1.54-6.09A13.93,13.93,0,0,1,381.87,195.29Zm2,17.44a4.63,4.63,0,0,0,1.91,1.66,6.16,6.16,0,0,0,2.67.56,9.44,9.44,0,0,0,1.82-.18,11.27,11.27,0,0,0,1.75-.47,10.14,10.14,0,0,0,1.6-.73,9.12,9.12,0,0,0,1.35-.92l1.34-15.32c-.31-.13-.65-.25-1-.37a8.92,8.92,0,0,0-1.21-.31c-.43-.08-.87-.14-1.32-.2a11.88,11.88,0,0,0-1.31-.07A8.76,8.76,0,0,0,388,197a7.86,7.86,0,0,0-2.67,1.85,9.5,9.5,0,0,0-1.84,2.93,13.22,13.22,0,0,0-.89,3.87Q382.19,210.32,383.86,212.73Zm9.91-24.57a1.67,1.67,0,0,1-1.16-.44,1.15,1.15,0,0,1-.45-1A3.14,3.14,0,0,1,393,185l3.79-4.41a2.41,2.41,0,0,1,1.83-1,2.34,2.34,0,0,1,1.33.47l.2.14a1.76,1.76,0,0,1,.94,1.61,2.28,2.28,0,0,1-.95,1.53l-4.63,4a4.91,4.91,0,0,1-.91.62A1.57,1.57,0,0,1,393.77,188.16Z"></path><path class="cls-1" d="M406.26,214.71a1.76,1.76,0,0,1,1.18-1.1,3.3,3.3,0,0,1,1.67.25,16.49,16.49,0,0,0,6,1.17,6,6,0,0,0,1.77-.28,5.68,5.68,0,0,0,1.56-.77,4.49,4.49,0,0,0,1.13-1.13,2.93,2.93,0,0,0,.5-1.39,2.38,2.38,0,0,0-.18-1.2,3,3,0,0,0-.88-1,8.87,8.87,0,0,0-1.68-1c-.7-.32-1.56-.69-2.58-1.09a32.81,32.81,0,0,1-3.61-1.48,9.42,9.42,0,0,1-2.38-1.63,4.74,4.74,0,0,1-1.24-2,8.33,8.33,0,0,1,.79-5.93,7.66,7.66,0,0,1,2.17-2.37,9.85,9.85,0,0,1,3.19-1.46,15.08,15.08,0,0,1,4-.5c.45,0,.93,0,1.45.05s1.06.09,1.6.16,1.08.17,1.61.29a15.2,15.2,0,0,1,1.52.42,5,5,0,0,1,1,.45,2.54,2.54,0,0,1,.71.62,1.5,1.5,0,0,1,.15,1.68l-.41.82a1.81,1.81,0,0,1-.58.68,1.75,1.75,0,0,1-.71.27,2.84,2.84,0,0,1-.77,0q-.39-.07-.75-.18a14.18,14.18,0,0,0-4.12-.66,8.39,8.39,0,0,0-4,.79,2.94,2.94,0,0,0-1.58,2.46,1.8,1.8,0,0,0,.2,1,2.65,2.65,0,0,0,.74.8,5.67,5.67,0,0,0,1.15.64,11.09,11.09,0,0,0,1.41.46,27.94,27.94,0,0,1,4.49,1.61,10.39,10.39,0,0,1,2.94,2,6,6,0,0,1,1.51,2.47,8.08,8.08,0,0,1,.27,3.09,7.48,7.48,0,0,1-1,3.21,8.64,8.64,0,0,1-2.27,2.52A10.8,10.8,0,0,1,419,219a13.13,13.13,0,0,1-3.92.58,24.22,24.22,0,0,1-3.1-.2,17.79,17.79,0,0,1-3-.65q-.81-.24-1.5-.51a4.85,4.85,0,0,1-1.18-.65,1.79,1.79,0,0,1-.62-.87,1.51,1.51,0,0,1,.17-1.14Z"></path><path class="cls-1" d="M436.39,216.74a2.92,2.92,0,0,1-1,2.09,4,4,0,0,1-2.63.74q-3.54,0-3.29-2.91c.17-1.86,1.4-2.8,3.71-2.8S436.56,214.82,436.39,216.74Zm-3.68-32.2a2.56,2.56,0,0,1,.7-1.69,2.35,2.35,0,0,1,1.71-.58h1.43a2,2,0,0,1,1.61.58,2.16,2.16,0,0,1,.41,1.69l-2.29,21.66a2.57,2.57,0,0,1-.74,1.64,2.41,2.41,0,0,1-1.73.58h-.55a1.83,1.83,0,0,1-2.08-2.22Z"></path><path class="cls-1" d="M160.31,42.68c-9.77-2.17-19.8,15.6-31.28,34.77-9.36,15.64-13.35,22-20,22-5.94,0-9-6.41-13.78-19.48C84.05,49.34,80.43,41,71.61,42.71c-6.55,1.3-10.47,11-10.47,24.7,0,29.77,14.73,79,43.65,79,34.72,0,63.05-65,63.05-89.75C167.84,49.15,165.75,43.88,160.31,42.68Z"></path><path class="cls-1" d="M332,42.68c-9.77-2.17-19.8,15.6-31.27,34.77-9.36,15.64-13.35,22-19.95,22-5.94,0-9-6.41-13.79-19.48C255.78,49.34,252.16,41,243.34,42.71c-6.55,1.3-10.47,11-10.47,24.7,0,29.77,14.73,79,43.65,79,34.71,0,63.05-65,63.05-89.75C339.57,49.15,337.48,43.88,332,42.68Z"></path><path class="cls-1" d="M397.42,42.49c-16.52,0-32.29,14.12-52.85,56.85-14.52,30.17-15,43.44-6.38,46.47,13.24,4.66,27.84-23.61,40.63-39.72,4.94-6.23,8.75-10.64,13.83-10.64s7.93,4.78,11,11.41c7.35,15.84,12.82,42.24,27,39.29,8.57-1.78,11.25-12,5.52-45.31C430.72,69.08,418.85,42.49,397.42,42.49Z"></path><path class="cls-1" d="M202.69,42.49c-9.48,0-21.91,18.61-25.61,52.51s4.21,52.51,14.26,52.51c9.47,0,21.9-18.6,25.61-52.51S212.73,42.49,202.69,42.49Z"></path></g></svg>